<svg data-v-423bf9ae="" xmlns="http://www.w3.org/2000/svg" viewBox="0 0 500 90" class="iconLeft"><!----><!----><!----><g data-v-423bf9ae="" id="731354cb-1778-4f4f-a1ae-869bb954ac2b" fill="black" transform="matrix(5.203815821927428,0,0,5.203815821927428,123.50379900975148,-7.064178847587691)"><path d="M4.09 4.72L5.13 4.50L7.79 12.33L8.73 12.62L8.67 13.17L5.15 13.17L5.23 12.67L6.40 12.29L5.65 10.21L2.79 10.21L2.02 12.33L3.29 12.62L3.21 13.17L0.01 13.17L0.08 12.67L1.09 12.29L4.09 4.72ZM4.31 6.10L3.05 9.52L5.46 9.52L4.31 6.10ZM9.07 13.17L9.15 12.63L10.19 12.38L10.19 8.18L9.15 7.80L9.24 7.28L11.16 7.12L11.33 7.29L11.33 12.38L12.43 12.62L12.35 13.17L9.07 13.17ZM10.70 4.24L10.70 4.24L10.70 4.24Q11.04 4.24 11.29 4.47L11.29 4.47L11.29 4.47Q11.54 4.70 11.54 5.02L11.54 5.02L11.54 5.02Q11.54 5.36 11.29 5.61L11.29 5.61L11.29 5.61Q11.03 5.86 10.70 5.86L10.70 5.86L10.70 5.86Q10.36 5.86 10.13 5.61L10.13 5.61L10.13 5.61Q9.89 5.36 9.89 5.01L9.89 5.01L9.89 5.01Q9.89 4.68 10.13 4.46L10.13 4.46L10.13 4.46Q10.37 4.24 10.70 4.24ZM13.39 9.02L13.45 7.21L18.05 7.21L18.05 7.71L14.61 12.50L17.07 12.50L17.72 11.29L18.18 11.35L17.90 13.17L13.31 13.17L13.28 12.58L16.63 7.84L14.33 7.84L13.92 9.11L13.39 9.02ZM22.41 11.89L22.41 10.25L22.41 10.25Q21.35 10.45 20.90 10.82L20.90 10.82L20.90 10.82Q20.45 11.18 20.45 11.70L20.45 11.70L20.45 11.70Q20.45 12.00 20.66 12.25L20.66 12.25L20.66 12.25Q20.87 12.50 21.23 12.50L21.23 12.50L21.23 12.50Q21.55 12.50 21.88 12.30L21.88 12.30L21.88 12.30Q22.21 12.11 22.41 11.89L22.41 11.89ZM23.60 13.30L23.60 13.30L23.60 13.30Q23.06 13.30 22.80 13.02L22.80 13.02L22.80 13.02Q22.54 12.74 22.54 12.38L22.54 12.38L22.54 12.28L22.46 12.28L22.46 12.28Q22.38 12.43 22.25 12.60L22.25 12.60L22.25 12.60Q22.11 12.76 21.89 12.94L21.89 12.94L21.89 12.94Q21.67 13.12 21.33 13.23L21.33 13.23L21.33 13.23Q20.99 13.34 20.60 13.34L20.60 13.34L20.60 13.34Q20.03 13.34 19.64 12.98L19.64 12.98L19.64 12.98Q19.26 12.63 19.26 12.02L19.26 12.02L19.26 12.02Q19.26 11.63 19.44 11.28L19.44 11.28L19.44 11.28Q19.62 10.92 19.99 10.62L19.99 10.62L19.99 10.62Q20.36 10.32 20.98 10.12L20.98 10.12L20.98 10.12Q21.60 9.91 22.41 9.86L22.41 9.86L22.41 9.48L22.41 9.48Q22.41 9.11 22.35 8.80L22.35 8.80L22.35 8.80Q22.30 8.50 22.17 8.23L22.17 8.23L22.17 8.23Q22.03 7.96 21.79 7.82L21.79 7.82L21.79 7.82Q21.55 7.68 21.20 7.68L21.20 7.68L21.20 7.68Q20.99 7.68 20.85 7.76L20.85 7.76L20.85 7.76Q20.71 7.84 20.64 8.03L20.64 8.03L20.64 8.03Q20.57 8.21 20.54 8.40L20.54 8.40L20.54 8.40Q20.50 8.60 20.47 8.91L20.47 8.91L20.47 8.91Q20.45 9.06 20.44 9.13L20.44 9.13L20.44 9.13Q20.30 9.13 20.20 9.12L20.20 9.12L20.20 9.12Q20.10 9.11 19.95 9.07L19.95 9.07L19.95 9.07Q19.81 9.04 19.72 8.97L19.72 8.97L19.72 8.97Q19.63 8.89 19.56 8.75L19.56 8.75L19.56 8.75Q19.49 8.61 19.49 8.42L19.49 8.42L19.49 8.42Q19.49 8.07 19.88 7.73L19.88 7.73L19.88 7.73Q20.27 7.39 20.82 7.20L20.82 7.20L20.82 7.20Q21.35 7.01 21.83 7.01L21.83 7.01L21.83 7.01Q22.73 7.01 23.13 7.52L23.13 7.52L23.13 7.52Q23.52 8.03 23.52 9.12L23.52 9.12L23.52 11.61L23.52 11.61Q23.52 12.09 23.67 12.26L23.67 12.26L23.67 12.26Q23.81 12.44 24.28 12.52L24.28 12.52L24.62 12.58L24.54 13.16L24.54 13.16Q24.43 13.17 24.26 13.21L24.26 13.21L24.26 13.21Q24.09 13.25 23.94 13.28L23.94 13.28L23.94 13.28Q23.78 13.30 23.60 13.30ZM25.76 7.08L25.40 4.27L26.65 4.38L26.41 7L25.76 7.08ZM30.56 9.15L30.56 9.15L30.51 8.86L30.51 8.86Q30.26 7.59 29.49 7.59L29.49 7.59L29.49 7.59Q29.14 7.59 28.93 7.83L28.93 7.83L28.93 7.83Q28.72 8.07 28.72 8.41L28.72 8.41L28.72 8.41Q28.72 8.67 28.89 8.90L28.89 8.90L28.89 8.90Q29.05 9.13 29.32 9.30L29.32 9.30L29.32 9.30Q29.59 9.48 29.90 9.66L29.90 9.66L29.90 9.66Q30.22 9.83 30.54 10.03L30.54 10.03L30.54 10.03Q30.86 10.23 31.13 10.45L31.13 10.45L31.13 10.45Q31.39 10.67 31.56 10.99L31.56 10.99L31.56 10.99Q31.73 11.30 31.73 11.67L31.73 11.67L31.73 11.67Q31.73 12.41 31.08 12.91L31.08 12.91L31.08 12.91Q30.44 13.41 29.62 13.41L29.62 13.41L29.62 13.41Q28.74 13.41 28.19 13.05L28.19 13.05L28.19 13.05Q27.64 12.69 27.64 12.21L27.64 12.21L27.64 12.21Q27.64 11.85 27.88 11.60L27.88 11.60L27.88 11.60Q28.13 11.35 28.54 11.31L28.54 11.31L28.54 11.31Q28.75 12.02 29.09 12.38L29.09 12.38L29.09 12.38Q29.43 12.74 29.83 12.74L29.83 12.74L29.83 12.74Q30.23 12.74 30.48 12.56L30.48 12.56L30.48 12.56Q30.73 12.39 30.73 12.04L30.73 12.04L30.73 12.04Q30.73 11.83 30.57 11.63L30.57 11.63L30.57 11.63Q30.41 11.43 30.15 11.27L30.15 11.27L30.15 11.27Q29.89 11.10 29.58 10.94L29.58 10.94L29.58 10.94Q29.26 10.77 28.95 10.57L28.95 10.57L28.95 10.57Q28.64 10.37 28.38 10.15L28.38 10.15L28.38 10.15Q28.12 9.93 27.96 9.60L27.96 9.60L27.96 9.60Q27.79 9.28 27.79 8.91L27.79 8.91L27.79 8.91Q27.79 8.67 27.87 8.41L27.87 8.41L27.87 8.41Q27.95 8.15 28.12 7.90L28.12 7.90L28.12 7.90Q28.29 7.64 28.52 7.45L28.52 7.45L28.52 7.45Q28.76 7.25 29.10 7.13L29.10 7.13L29.10 7.13Q29.44 7.01 29.84 7.01L29.84 7.01L29.84 7.01Q30.55 7.01 31.03 7.31L31.03 7.31L31.03 7.31Q31.51 7.61 31.51 8.16L31.51 8.16L31.51 8.16Q31.51 8.59 31.26 8.85L31.26 8.85L31.26 8.85Q31.01 9.12 30.56 9.15ZM39.18 9.04L39.18 9.04L37.66 9.04L37.66 12.52L39.16 12.52L39.16 12.52Q40.00 12.52 40.49 12.02L40.49 12.02L40.49 12.02Q40.97 11.51 40.97 10.80L40.97 10.80L40.97 10.80Q40.97 10.47 40.85 10.17L40.85 10.17L40.85 10.17Q40.74 9.86 40.53 9.60L40.53 9.60L40.53 9.60Q40.31 9.35 39.96 9.19L39.96 9.19L39.96 9.19Q39.61 9.04 39.18 9.04ZM40.19 8.52L40.19 8.52L40.19 8.58L40.19 8.58Q40.69 8.61 41.11 8.79L41.11 8.79L41.11 8.79Q41.52 8.98 41.78 9.27L41.78 9.27L41.78 9.27Q42.03 9.55 42.17 9.89L42.17 9.89L42.17 9.89Q42.31 10.23 42.31 10.58L42.31 10.58L42.31 10.58Q42.31 10.98 42.19 11.34L42.19 11.34L42.19 11.34Q42.08 11.70 41.82 12.04L41.82 12.04L41.82 12.04Q41.55 12.39 41.14 12.63L41.14 12.63L41.14 12.63Q40.74 12.87 40.10 13.02L40.10 13.02L40.10 13.02Q39.46 13.17 38.66 13.17L38.66 13.17L35.13 13.17L35.20 12.67L36.35 12.35L36.35 5.62L35.18 5.42L35.24 4.89L35.24 4.89Q37.38 4.58 38.61 4.58L38.61 4.58L38.61 4.58Q39.38 4.58 39.97 4.74L39.97 4.74L39.97 4.74Q40.56 4.91 40.91 5.19L40.91 5.19L40.91 5.19Q41.25 5.47 41.43 5.82L41.43 5.82L41.43 5.82Q41.60 6.17 41.60 6.57L41.60 6.57L41.60 6.57Q41.60 6.85 41.53 7.12L41.53 7.12L41.53 7.12Q41.45 7.39 41.30 7.66L41.30 7.66L41.30 7.66Q41.15 7.93 40.86 8.16L40.86 8.16L40.86 8.16Q40.58 8.38 40.19 8.52ZM37.66 5.21L37.66 5.21L37.66 8.47L39.42 8.47L39.42 8.47Q40.32 8.09 40.31 6.95L40.31 6.95L40.31 6.95Q40.31 6.69 40.25 6.44L40.25 6.44L40.25 6.44Q40.20 6.20 40.04 5.96L40.04 5.96L40.04 5.96Q39.89 5.72 39.66 5.55L39.66 5.55L39.66 5.55Q39.43 5.38 39.05 5.27L39.05 5.27L39.05 5.27Q38.68 5.17 38.20 5.17L38.20 5.17L38.20 5.17Q37.90 5.16 37.66 5.21ZM46.28 11.89L46.28 10.25L46.28 10.25Q45.22 10.45 44.77 10.82L44.77 10.82L44.77 10.82Q44.32 11.18 44.32 11.70L44.32 11.70L44.32 11.70Q44.32 12.00 44.53 12.25L44.53 12.25L44.53 12.25Q44.74 12.50 45.10 12.50L45.10 12.50L45.10 12.50Q45.42 12.50 45.75 12.30L45.75 12.30L45.75 12.30Q46.08 12.11 46.28 11.89L46.28 11.89ZM47.48 13.30L47.48 13.30L47.48 13.30Q46.94 13.30 46.68 13.02L46.68 13.02L46.68 13.02Q46.42 12.74 46.42 12.38L46.42 12.38L46.42 12.28L46.33 12.28L46.33 12.28Q46.25 12.43 46.12 12.60L46.12 12.60L46.12 12.60Q45.99 12.76 45.76 12.94L45.76 12.94L45.76 12.94Q45.54 13.12 45.20 13.23L45.20 13.23L45.20 13.23Q44.86 13.34 44.47 13.34L44.47 13.34L44.47 13.34Q43.90 13.34 43.51 12.98L43.51 12.98L43.51 12.98Q43.13 12.63 43.13 12.02L43.13 12.02L43.13 12.02Q43.13 11.63 43.31 11.28L43.31 11.28L43.31 11.28Q43.49 10.92 43.86 10.62L43.86 10.62L43.86 10.62Q44.23 10.32 44.85 10.12L44.85 10.12L44.85 10.12Q45.47 9.91 46.28 9.86L46.28 9.86L46.28 9.48L46.28 9.48Q46.28 9.11 46.22 8.80L46.22 8.80L46.22 8.80Q46.17 8.50 46.04 8.23L46.04 8.23L46.04 8.23Q45.90 7.96 45.66 7.82L45.66 7.82L45.66 7.82Q45.42 7.68 45.07 7.68L45.07 7.68L45.07 7.68Q44.86 7.68 44.72 7.76L44.72 7.76L44.72 7.76Q44.58 7.84 44.51 8.03L44.51 8.03L44.51 8.03Q44.44 8.21 44.41 8.40L44.41 8.40L44.41 8.40Q44.37 8.60 44.34 8.91L44.34 8.91L44.34 8.91Q44.32 9.06 44.31 9.13L44.31 9.13L44.31 9.13Q44.17 9.13 44.07 9.12L44.07 9.12L44.07 9.12Q43.97 9.11 43.83 9.07L43.83 9.07L43.83 9.07Q43.68 9.04 43.59 8.97L43.59 8.97L43.59 8.97Q43.50 8.89 43.43 8.75L43.43 8.75L43.43 8.75Q43.36 8.61 43.36 8.42L43.36 8.42L43.36 8.42Q43.36 8.07 43.75 7.73L43.75 7.73L43.75 7.73Q44.14 7.39 44.69 7.20L44.69 7.20L44.69 7.20Q45.22 7.01 45.70 7.01L45.70 7.01L45.70 7.01Q46.60 7.01 47.00 7.52L47.00 7.52L47.00 7.52Q47.39 8.03 47.39 9.12L47.39 9.12L47.39 11.61L47.39 11.61Q47.39 12.09 47.54 12.26L47.54 12.26L47.54 12.26Q47.68 12.44 48.15 12.52L48.15 12.52L48.49 12.58L48.41 13.16L48.41 13.16Q48.30 13.17 48.13 13.21L48.13 13.21L48.13 13.21Q47.96 13.25 47.81 13.28L47.81 13.28L47.81 13.28Q47.65 13.30 47.48 13.30ZM51.25 10.21L51.25 10.08L53.02 7.87L52.10 7.58L52.19 7.07L55.09 7.07L55.00 7.57L53.97 7.85L52.36 9.84L52.90 10.53L52.90 10.53Q53.07 10.74 53.29 11.03L53.29 11.03L53.29 11.03Q53.51 11.33 53.63 11.48L53.63 11.48L53.63 11.48Q53.75 11.64 53.92 11.85L53.92 11.85L53.92 11.85Q54.09 12.05 54.21 12.15L54.21 12.15L54.21 12.15Q54.33 12.26 54.48 12.37L54.48 12.37L54.48 12.37Q54.63 12.48 54.79 12.53L54.79 12.53L54.79 12.53Q54.95 12.58 55.13 12.61L55.13 12.61L55.39 12.65L55.32 13.17L55.32 13.17Q54.91 13.31 54.50 13.31L54.50 13.31L54.50 13.31Q54.17 13.31 53.89 13.20L53.89 13.20L53.89 13.20Q53.61 13.10 53.30 12.81L53.30 12.81L53.30 12.81Q52.99 12.52 52.72 12.19L52.72 12.19L52.72 12.19Q52.45 11.85 51.97 11.21L51.97 11.21L51.25 10.21ZM48.82 13.17L48.90 12.63L49.94 12.38L49.94 5.60L48.86 5.24L48.95 4.72L50.91 4.56L51.08 4.73L51.08 5.12L51.08 12.38L52.17 12.62L52.10 13.17L48.82 13.17ZM60.28 10.09L60.28 10.09L56.97 10.12L56.97 10.12Q56.99 10.55 57.12 10.95L57.12 10.95L57.12 10.95Q57.24 11.35 57.47 11.70L57.47 11.70L57.47 11.70Q57.69 12.05 58.06 12.26L58.06 12.26L58.06 12.26Q58.43 12.48 58.88 12.48L58.88 12.48L58.92 12.48L58.92 12.48Q59.21 12.48 59.38 12.46L59.38 12.46L59.38 12.46Q59.54 12.45 59.82 12.36L59.82 12.36L59.82 12.36Q60.10 12.27 60.43 12.10L60.43 12.10L60.58 12.46L60.58 12.46Q60.17 12.89 59.58 13.14L59.58 13.14L59.58 13.14Q58.99 13.38 58.33 13.38L58.33 13.38L58.33 13.38Q57.84 13.38 57.38 13.17L57.38 13.17L57.38 13.17Q56.93 12.97 56.56 12.59L56.56 12.59L56.56 12.59Q56.19 12.22 55.97 11.61L55.97 11.61L55.97 11.61Q55.75 11.00 55.75 10.25L55.75 10.25L55.75 10.25Q55.75 9.50 56.01 8.88L56.01 8.88L56.01 8.88Q56.26 8.26 56.67 7.87L56.67 7.87L56.67 7.87Q57.07 7.47 57.57 7.25L57.57 7.25L57.57 7.25Q58.06 7.03 58.56 7.03L58.56 7.03L58.56 7.03Q59.35 7.03 59.87 7.59L59.87 7.59L59.87 7.59Q60.40 8.16 60.40 9.19L60.40 9.19L60.40 9.19Q60.40 9.59 60.28 10.09ZM56.98 9.59L56.98 9.59L59.13 9.45L59.13 9.45Q59.18 9.30 59.18 8.98L59.18 8.98L59.18 8.98Q59.18 7.70 58.23 7.70L58.23 7.70L58.23 7.70Q57.77 7.70 57.40 8.18L57.40 8.18L57.40 8.18Q57.03 8.66 56.98 9.59ZM65.32 8.57L65.32 8.57L65.32 8.57Q64.93 8.23 64.57 8.23L64.57 8.23L64.57 8.23Q64.25 8.23 63.92 8.62L63.92 8.62L63.92 8.62Q63.58 9.02 63.48 9.72L63.48 9.72L63.48 12.35L65.06 12.58L64.99 13.17L61.22 13.17L61.30 12.67L62.34 12.39L62.34 8.20L61.23 7.87L61.32 7.35L63.27 7.09L63.41 7.25L63.30 8.83L63.43 8.83L63.43 8.83Q63.69 7.94 64.13 7.46L64.13 7.46L64.13 7.46Q64.58 6.98 65.04 6.98L65.04 6.98L65.04 6.98Q65.40 6.98 65.63 7.21L65.63 7.21L65.63 7.21Q65.86 7.44 65.86 7.75L65.86 7.75L65.86 7.75Q65.85 8.20 65.32 8.57ZM68.70 13.17L66.75 7.99L65.90 7.73L65.98 7.21L68.84 7.21L68.79 7.71L67.92 7.96L69.32 11.66L70.79 8.00L69.90 7.72L69.99 7.21L72.33 7.21L72.28 7.71L71.59 7.99L69.33 13.54L69.33 13.54Q68.80 14.83 68.31 15.30L68.31 15.30L68.31 15.30Q67.83 15.77 67.03 15.77L67.03 15.77L67.03 15.77Q66.58 15.77 66.28 15.52L66.28 15.52L66.28 15.52Q65.98 15.27 65.98 14.96L65.98 14.96L65.98 14.96Q65.98 14.46 66.36 14.14L66.36 14.14L66.36 14.14Q66.90 14.51 67.39 14.51L67.39 14.51L67.39 14.51Q67.55 14.51 67.67 14.48L67.67 14.48L67.67 14.48Q67.79 14.44 67.96 14.36L67.96 14.36L67.96 14.36Q68.12 14.27 68.28 14.05L68.28 14.05L68.28 14.05Q68.43 13.84 68.56 13.51L68.56 13.51L68.70 13.17Z"></path></g><!----><g data-v-423bf9ae="" id="75850260-8f84-4ca4-b9df-221fc746e659" transform="matrix(1.896453449998951,0,0,1.896453449998951,-43.41516402079138,-75.9639195344155)" stroke="none" fill="black"><path d="M72.103 53.057a24.962 24.962 0 0 0-2.46-3.66 25.015 25.015 0 0 0-3.512-3.564 5.493 5.493 0 0 1-4.268 2.037 5.506 5.506 0 0 1-5.5-5.5c0-.501.072-.983.199-1.445a24.75 24.75 0 0 0-4.962-.763c-.423-.021-.847-.044-1.275-.044-9.382 0-17.563 5.236-21.777 12.939-3.18.869-5.527 3.776-5.527 7.229a7.484 7.484 0 0 0 2.834 5.861 7.466 7.466 0 0 0 2.364 1.273h1.314l3.609 18.143a2.5 2.5 0 0 0 2.452 2.012h30.66a2.501 2.501 0 0 0 2.452-2.012l3.61-18.143h.113a7.481 7.481 0 0 0 2.363-1.273 7.48 7.48 0 0 0 2.834-5.861c.003-3.453-2.344-6.36-5.523-7.229zM31.049 57.42c.321 0 .626.066.909.177a19.7 19.7 0 0 1 2.096-3.925c3.578-5.16 9.531-8.555 16.272-8.555.481 0 .957.021 1.428.056 1.231 4.431 5.291 7.696 10.109 7.696 1.27 0 2.482-.238 3.611-.653.395.469.773.951 1.123 1.456a19.7 19.7 0 0 1 2.096 3.925c.283-.11.588-.177.909-.177a2.5 2.5 0 0 1 2.5 2.5 2.493 2.493 0 0 1-2.136 2.464c.001.013.004.024.006.036H30.679l.006-.036a2.493 2.493 0 0 1-2.136-2.464 2.5 2.5 0 0 1 2.5-2.5zm33.155 25.154H37.647L34.632 67.42h32.586l-3.014 15.154z"></path></g><!----></svg>