<svg data-v-fde0c5aa="" xmlns="http://www.w3.org/2000/svg" viewBox="0 0 300 300" class="icon"><!----><defs data-v-fde0c5aa=""><!----></defs><rect data-v-fde0c5aa="" fill="#F3EEEE" x="0" y="0" width="300px" height="300px" class="logo-background-square"></rect><!----><defs data-v-fde0c5aa=""><linearGradient data-v-fde0c5aa="" gradientTransform="rotate(25)" id="7414fbd9-061d-4eae-9d6f-c0646cac019d" x1="0%" y1="0%" x2="100%" y2="0%"><stop data-v-fde0c5aa="" offset="0%" stop-color="#87544E" stop-opacity="1"></stop><stop data-v-fde0c5aa="" offset="100%" stop-color="#87544E" stop-opacity="1"></stop></linearGradient></defs><g data-v-fde0c5aa="" id="67e0077f-5588-48a6-b0ae-f9c68a24206b" fill="url(#7414fbd9-061d-4eae-9d6f-c0646cac019d)" stroke="none" transform="matrix(4.02893567590221,0,0,4.02893567590221,-52.750112456914806,-107.23345091446909)"><path d="M72.103 53.057a24.962 24.962 0 0 0-2.46-3.66 25.015 25.015 0 0 0-3.512-3.564 5.493 5.493 0 0 1-4.268 2.037 5.506 5.506 0 0 1-5.5-5.5c0-.501.072-.983.199-1.445a24.75 24.75 0 0 0-4.962-.763c-.423-.021-.847-.044-1.275-.044-9.382 0-17.563 5.236-21.777 12.939-3.18.869-5.527 3.776-5.527 7.229a7.484 7.484 0 0 0 2.834 5.861 7.466 7.466 0 0 0 2.364 1.273h1.314l3.609 18.143a2.5 2.5 0 0 0 2.452 2.012h30.66a2.501 2.501 0 0 0 2.452-2.012l3.61-18.143h.113a7.481 7.481 0 0 0 2.363-1.273 7.48 7.48 0 0 0 2.834-5.861c.003-3.453-2.344-6.36-5.523-7.229zM31.049 57.42c.321 0 .626.066.909.177a19.7 19.7 0 0 1 2.096-3.925c3.578-5.16 9.531-8.555 16.272-8.555.481 0 .957.021 1.428.056 1.231 4.431 5.291 7.696 10.109 7.696 1.27 0 2.482-.238 3.611-.653.395.469.773.951 1.123 1.456a19.7 19.7 0 0 1 2.096 3.925c.283-.11.588-.177.909-.177a2.5 2.5 0 0 1 2.5 2.5 2.493 2.493 0 0 1-2.136 2.464c.001.013.004.024.006.036H30.679l.006-.036a2.493 2.493 0 0 1-2.136-2.464 2.5 2.5 0 0 1 2.5-2.5zm33.155 25.154H37.647L34.632 67.42h32.586l-3.014 15.154z"></path></g><!----></svg>